<?xml version="1.0" encoding="iso-8859-1"?>
<!-- Generator: Adobe Illustrator 17.1.0, SVG Export Plug-In . SVG Version: 6.00 Build 0)  -->
<!DOCTYPE svg PUBLIC "-//W3C//DTD SVG 1.1//EN" "http://www.w3.org/Graphics/SVG/1.1/DTD/svg11.dtd">
<svg version="1.1" id="Capa_1" xmlns="http://www.w3.org/2000/svg" xmlns:xlink="http://www.w3.org/1999/xlink" x="0px" y="0px"
	 viewBox="0 0 254.532 254.532" style="enable-background:new 0 0 254.532 254.532;" xml:space="preserve">
<path d="M127.267,0.001C57.092,0.001,0,57.091,0,127.266s57.092,127.266,127.267,127.266s127.266-57.091,127.266-127.266
	S197.441,0.001,127.267,0.001z M38.646,158.994c0.138-0.014,0.273-0.023,0.411-0.038l48.101-5.039
	c0.41-0.043,0.825-0.064,1.232-0.064c5.951,0,11.081,4.642,11.679,10.568l5.221,51.762c0.075,0.751,0.18,1.661,0.317,2.691
	C74.501,211.521,49.312,188.691,38.646,158.994z M127.098,151.516c-13.393,0-24.249-10.857-24.249-24.249
	c0-13.393,10.856-24.25,24.249-24.25s24.249,10.857,24.249,24.25C151.347,140.659,140.49,151.516,127.098,151.516z M148.926,218.874
	c0.138-1.031,0.242-1.941,0.317-2.692l5.221-51.761c0.598-5.922,5.724-10.561,11.67-10.561c0.409,0,0.825,0.022,1.236,0.065
	l47.764,5.022c0.249,0.026,0.495,0.045,0.743,0.069C205.209,188.703,180.025,211.523,148.926,218.874z M153.568,91.029
	c-7.229-2.545-16.63-3.947-26.471-3.947s-19.242,1.401-26.471,3.947L34.01,114.485c6.256-45.878,45.69-81.347,93.257-81.347
	c47.61,0,87.072,35.533,93.273,81.472L153.568,91.029z"/>
<g>
</g>
<g>
</g>
<g>
</g>
<g>
</g>
<g>
</g>
<g>
</g>
<g>
</g>
<g>
</g>
<g>
</g>
<g>
</g>
<g>
</g>
<g>
</g>
<g>
</g>
<g>
</g>
<g>
</g>
</svg>
