<?xml version="1.0" encoding="iso-8859-1"?>
<!-- Generator: Adobe Illustrator 17.1.0, SVG Export Plug-In . SVG Version: 6.00 Build 0)  -->
<!DOCTYPE svg PUBLIC "-//W3C//DTD SVG 1.1//EN" "http://www.w3.org/Graphics/SVG/1.1/DTD/svg11.dtd">
<svg version="1.1" id="Capa_1" xmlns="http://www.w3.org/2000/svg" xmlns:xlink="http://www.w3.org/1999/xlink" x="0px" y="0px"
	 viewBox="0 0 267.696 267.696" style="enable-background:new 0 0 267.696 267.696;" xml:space="preserve">
<g>
	<path d="M265.674,127.462c-1.825-2.283-4.598-3.541-7.824-3.541l-91.101,0.14c-2.015,0-3.915-0.791-5.351-2.227
		c-1.437-1.436-2.228-3.337-2.228-5.352V104.39c0-6.451-5.248-11.699-11.74-11.699l-1.331,0.004
		c-6.464,0.023-11.73,5.303-11.736,11.768l-0.012,13.074c-0.005,4.188-3.415,7.596-7.604,7.596H74.624
		c-1.818,0-2.856-0.467-3.052-0.901c-0.195-0.434,0.145-1.521,1.353-2.88l26.445-29.782c4.181-4.709,5.187-11.948,2.289-16.481
		c-1.457-2.28-3.771-3.588-6.347-3.588c-2.686,0-5.453,1.427-7.594,3.915l-36.935,42.934c-3.177,3.693-9.87,7.741-14.615,8.842
		l-25.152,5.829C4.942,134.427,0,140.646,0,146.882v43.844c0,6.471,5.264,11.734,11.734,11.734h18.744
		c3.976,13.648,16.589,23.652,31.502,23.652c14.913,0,27.526-10.005,31.502-23.652h70.854c3.976,13.648,16.589,23.652,31.502,23.652
		s27.526-10.005,31.502-23.652h13.736c6.241,0,12.436-4.953,13.81-11.042l12.525-55.559
		C268.117,132.728,267.5,129.746,265.674,127.462z M61.98,209.597c-9.002,0-16.299-7.299-16.299-16.3
		c0-9.003,7.297-16.3,16.299-16.3c9.002,0,16.299,7.297,16.299,16.3C78.279,202.299,70.982,209.597,61.98,209.597z M195.837,209.597
		c-9.002,0-16.299-7.299-16.299-16.3c0-9.003,7.297-16.3,16.299-16.3c9.002,0,16.299,7.297,16.299,16.3
		C212.136,202.299,204.839,209.597,195.837,209.597z"/>
	<path d="M218.813,80.321c0.147,0,0.299-0.046,0.441-0.095c0.468-0.159,0.883-0.381,1.233-0.658
		c0.344-0.272,0.629-0.608,0.845-0.998c0.21-0.379,0.316-0.863,0.316-1.438c0-1.03-0.583-1.857-1.783-2.53
		c-0.238-0.154-0.499-0.309-0.793-0.472c-0.094-0.052-0.313-0.173-0.498-0.173c-0.408,0-0.469,0.795-0.469,1.269v3.357
		C218.106,79.736,218.343,80.321,218.813,80.321z"/>
	<path d="M168.122,82.008l21.985,14.785c1.777,1.195,4.849,2.132,6.991,2.132h41.307c2.767,0,5.018-2.251,5.018-5.018V46.601
		c0-2.767-2.251-5.018-5.018-5.018h-41.307c-2.143,0-5.214,0.937-6.99,2.132l-21.987,14.785c-1.992,1.341-3.495,4.162-3.495,6.564
		v10.381C164.625,77.846,166.128,80.668,168.122,82.008z M212.052,71.178c-2.542-1.073-4.5-2.14-5.876-3.193
		c-2.056-1.572-3.098-3.847-3.098-6.76c0-1.442,0.302-2.75,0.896-3.886c0.589-1.132,1.374-2.111,2.332-2.912
		c0.96-0.796,2.062-1.447,3.275-1.937c1.211-0.486,2.628-0.763,2.688-0.774c0.444-0.085,0.819-0.54,0.819-0.993v-1.309
		c0-0.726,0.592-1.316,1.318-1.316h2.383c0.726,0,1.316,0.591,1.316,1.316v1.254c0,0.739,0.486,0.884,1.029,0.976
		c0.653,0.114,1.222,0.245,1.729,0.395c0.865,0.257,1.687,0.604,2.441,1.029c0.76,0.429,1.505,0.949,2.217,1.548
		c0.704,0.597,1.542,1.355,1.542,1.355c0.263,0.239,0.41,0.562,0.417,0.909c0.006,0.347-0.13,0.673-0.383,0.92l-2.474,2.422
		c-0.862,0.838-1.777,0.901-2.576,0.183c-0.461-0.41-0.935-0.818-1.426-1.22c-0.825-0.678-1.864-1.052-1.874-1.056
		c-0.359-0.125-0.642,0.065-0.642,0.455v5.977c0,1.183,0.445,1.343,0.804,1.472l0.124,0.046c2.076,0.839,4.024,1.888,5.789,3.118
		c2.404,1.697,3.623,4.131,3.623,7.233c0,3.406-1.151,6.041-3.423,7.832c-1.443,1.127-3.336,1.896-5.629,2.287l-0.132,0.02
		c-0.515,0.075-1.156,0.169-1.156,1.395v3.131c0,0.726-0.591,1.316-1.316,1.316h-2.383c-0.727,0-1.318-0.591-1.318-1.316v-2.703
		c0-1.696-0.839-1.844-1.451-1.952l-0.184-0.034c-1.537-0.329-2.934-0.854-4.151-1.562c-1.686-0.977-3.878-3.419-3.971-3.522
		c-0.233-0.263-0.35-0.599-0.326-0.948c0.023-0.351,0.184-0.669,0.45-0.898l2.667-2.281c0.393-0.396,0.824-0.603,1.265-0.603
		c0.698,0,1.222,0.527,1.472,0.842c0.424,0.534,0.884,1.011,1.365,1.416c0.843,0.709,2.218,1.223,2.231,1.228
		c0.356,0.132,0.633-0.057,0.633-0.442V72.79C213.088,71.609,212.464,71.349,212.052,71.178z M177.282,63.756
		c3.583,0,6.498,2.915,6.498,6.498c0,3.584-2.915,6.5-6.498,6.5c-3.583,0-6.498-2.916-6.498-6.5
		C170.784,66.671,173.699,63.756,177.282,63.756z"/>
	<path d="M213.233,58.528c0.007-0.246-0.037-0.427-0.129-0.521c-0.068-0.07-0.175-0.104-0.326-0.104
		c-0.234,0-0.497,0.085-0.653,0.136c-0.406,0.13-0.773,0.32-1.09,0.565c-0.318,0.245-0.589,0.545-0.803,0.891
		c-0.207,0.33-0.311,0.724-0.311,1.17c0,0.418,0.107,0.784,0.33,1.117c0.232,0.349,0.52,0.658,0.856,0.922
		c0.343,0.268,0.729,0.51,1.149,0.72l0.436,0.219c0.036,0.016,0.081,0.026,0.122,0.026c0.068,0,0.125-0.032,0.173-0.099
		c0.066-0.092,0.103-0.235,0.103-0.403L213.233,58.528z"/>
</g>
<g>
</g>
<g>
</g>
<g>
</g>
<g>
</g>
<g>
</g>
<g>
</g>
<g>
</g>
<g>
</g>
<g>
</g>
<g>
</g>
<g>
</g>
<g>
</g>
<g>
</g>
<g>
</g>
<g>
</g>
</svg>
