<svg width="12" height="15" fill="none" xmlns="http://www.w3.org/2000/svg"><g clip-path="url(#clip0)"><path d="M5.582 2A3.586 3.586 0 002 5.582c0 .167.08 1.125 1.665 3.537a41.678 41.678 0 001.967 2.71c.42-.543.89-1.177 1.351-1.85 2.12-3.092 2.18-4.273 2.18-4.397A3.586 3.586 0 005.583 2zm0-2c3.083 0 5.582 2.5 5.582 5.582C11.164 8.63 5.676 15 5.583 15l-.001-.002C5.612 14.853 0 8.665 0 5.582S2.5 0 5.582 0z" fill="#F88500"/></g><defs><clipPath id="clip0"><path fill="#fff" d="M0 0h11.164v15H0z"/></clipPath></defs></svg>