<?xml version="1.0" encoding="iso-8859-1"?>
<!-- Generator: Adobe Illustrator 17.1.0, SVG Export Plug-In . SVG Version: 6.00 Build 0)  -->
<!DOCTYPE svg PUBLIC "-//W3C//DTD SVG 1.1//EN" "http://www.w3.org/Graphics/SVG/1.1/DTD/svg11.dtd">
<svg version="1.1" id="Capa_1" xmlns="http://www.w3.org/2000/svg" xmlns:xlink="http://www.w3.org/1999/xlink" x="0px" y="0px"
	 viewBox="0 0 240.467 240.467" style="enable-background:new 0 0 240.467 240.467;" xml:space="preserve">
<g>
	<path d="M198.874,97.947c0-5.307-3.958-9.159-9.411-9.159c-1.108,0-2.251,0.16-3.395,0.475l-3.865,1.065l-5.941-14.472
		c-3.492-8.506-13.814-15.426-23.009-15.426h-66.15c-9.196,0-19.518,6.92-23.009,15.427l-5.93,14.444l-3.767-1.038
		c-1.144-0.315-2.286-0.475-3.394-0.475c-5.453,0-9.411,3.852-9.411,9.159c0,5.191,3.808,9.578,9.001,10.965
		c-2.852,8.015-5.053,19.832-5.053,27.631v30.994c0,6.893,5.607,12.5,12.5,12.5h4.029c6.893,0,12.5-5.607,12.5-12.5v-5.622h91.216
		v5.622c0,6.893,5.607,12.5,12.5,12.5h4.029c6.893,0,12.5-5.607,12.5-12.5v-30.994c0-7.792-2.198-19.593-5.045-27.607
		C195.016,107.579,198.874,103.172,198.874,97.947z M65.878,100.908l9.762-23.779c2.089-5.088,8.298-9.251,13.798-9.251h61.483
		c5.5,0,11.709,4.163,13.798,9.251l9.762,23.779c2.089,5.088-0.702,9.251-6.202,9.251H72.08
		C66.58,110.159,63.789,105.996,65.878,100.908z M92.124,140.347c0,2.75-2.25,5-5,5H67.08c-2.75,0-5-2.25-5-5v-7.859
		c0-2.75,2.25-5,5-5h20.044c2.75,0,5,2.25,5,5V140.347z M178.055,140.347c0,2.75-2.25,5-5,5h-20.044c-2.75,0-5-2.25-5-5v-7.859
		c0-2.75,2.25-5,5-5h20.044c2.75,0,5,2.25,5,5V140.347z"/>
	<path d="M7.134,75.471c1.376,0.834,2.896,1.231,4.395,1.231c2.875,0,5.681-1.459,7.279-4.098C39.896,37.787,76.756,17,117.409,17
		c33.999,0,65.928,14.95,87.706,40.525c-3.557-0.3-7.058,1.673-8.533,5.136c-1.839,4.319,0.171,9.311,4.49,11.151l13.918,5.928
		c2.224,0.947,4.504,1.417,6.721,1.417c2.761,0,5.425-0.729,7.761-2.175c4.212-2.608,6.812-7.21,7.133-12.626l0.81-13.645
		c0.278-4.686-3.296-8.71-7.982-8.988c-4.027-0.245-7.563,2.372-8.652,6.089C195.777,18.449,157.871,0,117.409,0
		c-23.15,0-45.933,6.074-65.885,17.565C32.178,28.707,15.837,44.694,4.267,63.797C1.835,67.812,3.119,73.038,7.134,75.471z"/>
	<path d="M233.333,164.997c-4.016-2.432-9.243-1.147-11.674,2.867c-21.087,34.817-57.948,55.604-98.602,55.604
		c-33.998,0-65.927-14.95-87.705-40.525c3.555,0.299,7.057-1.674,8.532-5.136c1.839-4.319-0.171-9.311-4.49-11.151l-13.918-5.928
		c-4.992-2.126-10.269-1.85-14.481,0.758c-4.212,2.608-6.812,7.21-7.133,12.626l-0.81,13.645c-0.278,4.686,3.295,8.711,7.982,8.988
		c0.171,0.01,0.342,0.016,0.511,0.016c3.815-0.001,7.098-2.548,8.141-6.105c25.004,31.363,62.91,49.812,103.372,49.812
		c23.15,0,45.933-6.074,65.885-17.565c19.347-11.143,35.688-27.129,47.258-46.232C238.632,172.655,237.349,167.429,233.333,164.997z
		"/>
</g>
<g>
</g>
<g>
</g>
<g>
</g>
<g>
</g>
<g>
</g>
<g>
</g>
<g>
</g>
<g>
</g>
<g>
</g>
<g>
</g>
<g>
</g>
<g>
</g>
<g>
</g>
<g>
</g>
<g>
</g>
</svg>
