<svg xmlns="http://www.w3.org/2000/svg" width="54.311" height="37.664" fill="none"><g clip-path="url(#clip0)" transform="translate(-.321 -5.236)"><path d="M47.771 35.54c-1.729.26-3.49.215-5.203-.137l-.592-.13.883-1.553a51.154 51.154 0 003.673-7.726 42.73 42.73 0 002.224-7.91 31.87 31.87 0 00.508-3.855c-.019.008-.144.54-.277 1.183-1.436 6.857-4.636 13.9-8.275 18.227a3.554 3.554 0 01-.715.732 20.805 20.805 0 01-2.359-3.145 16.014 16.014 0 01-1.686-4.057 8.459 8.459 0 011.39-6.729 19.781 19.781 0 014.231-4.568c4.042-3.467 4.682-4.11 5.767-5.782A11.498 11.498 0 0048.923 6c.031-.26.085-.515.162-.764.54.7 1.01 1.45 1.405 2.242a30.663 30.663 0 011.882 4.335c3.027 8.748 3.013 16.993-.037 20.918a7.574 7.574 0 01-1.833 1.711c-.85.5-1.771.87-2.73 1.098zm-16.96 6.733c-4.957 1.476-9.49.35-13.66-3.395a18.077 18.077 0 01-3.247-3.712 33.219 33.219 0 01-2.821-5.494 24.741 24.741 0 00-2.527-4.863c-1.698-2.34-3.927-3.713-7.362-4.52a5.96 5.96 0 01-.873-.245 7.318 7.318 0 011.313-1.07 21.984 21.984 0 016.107-2.679 36.607 36.607 0 0118.392.098 24.787 24.787 0 018.428 3.951l.527.408-.302.668a8.386 8.386 0 00-.411 6.723 14.582 14.582 0 002.4 4.15c.19.22.365.452.525.695a2.218 2.218 0 01-.422-.33 39.72 39.72 0 00-16.096-8.955c-.967-.256-2.318-.56-2.374-.537-.019.007.652.333 1.49.722a51.999 51.999 0 0110.555 6.386 42.77 42.77 0 013.944 3.659 19.527 19.527 0 012.899 4.034l.202.457-.533.453a19.573 19.573 0 01-6.155 3.395zm6.641-9.076c-.042-.033-.068-.08-.057-.107.011-.026.057-.004.104.048.098.108.067.147-.046.059z" fill="#ff8900"/></g><defs id="defs9"><clipPath id="clip0"><path fill="#fff" id="rect6" d="M0 0h60.047v49.949H0z"/></clipPath></defs></svg>