<svg width="40" height="40" fill="none" xmlns="http://www.w3.org/2000/svg"><g clip-path="url(#clip0)"><path d="M19.053 39.553C17.489 38.596.59 27.446.306 27.183c-.36-.33-.407-1.096-.097-1.54.247-.353 1-.523 1.389-.314.154.082 4.33 2.812 9.278 6.065 4.95 3.254 9.055 5.916 9.124 5.916.069 0 4.174-2.662 9.124-5.916 4.949-3.253 9.124-5.982 9.278-6.065.39-.209 1.142-.039 1.389.313.31.445.262 1.21-.097 1.542-.285.262-17.178 11.409-18.747 12.369-.401.246-.828.447-.947.447-.12 0-.546-.201-.947-.447zm.246-6.354c-.73-.397-.866-1.276-.287-1.857.77-.771 2.33-.27 2.33.749 0 .536-.202.873-.668 1.115-.488.252-.902.25-1.375-.007zm-3.407-2.267c-.952-.422-1.271-1.3-.726-1.995.35-.445.815-.52 1.457-.231.95.426 1.241 1.28.66 1.933-.383.43-.859.53-1.391.293zm7.242.057c-.662-.268-.913-1.142-.5-1.735.282-.402 1.17-.802 1.6-.72.451.087.866.646.866 1.168 0 .503-.384.966-1.022 1.233-.505.212-.547.214-.944.054zm-11.119-2.58c-.609-.337-.872-.694-.872-1.181 0-1.328 1.498-1.616 2.404-.462.373.475.353.885-.068 1.386-.373.445-.944.545-1.464.257zm14.506-.257c-.42-.5-.44-.91-.068-1.386.626-.797 1.75-.959 2.199-.317.311.445.263 1.21-.097 1.539-.785.716-1.521.776-2.034.164zm-7.109-1.22C18.35 26.311.302 14.377.172 14.205c-.28-.364-.207-1.16.134-1.476.166-.155 4.56-3.082 9.763-6.505C18 1.008 19.606 0 20 0c.394 0 1.999 1.006 9.93 6.224 5.204 3.424 9.598 6.35 9.764 6.505.341.317.413 1.113.134 1.477-.143.187-18.535 12.34-19.278 12.739a1.24 1.24 0 01-1.138-.014zm-11.154-.988c-.601-.314-.873-.71-.873-1.27 0-.978 1.006-1.398 1.948-.815 1.404.87.384 2.848-1.075 2.085zm22.377.062c-.166-.067-.402-.33-.523-.587-.188-.394-.195-.529-.051-.877.365-.884 1.69-1.253 2.27-.632.59.63.32 1.592-.565 2.013-.52.248-.692.26-1.13.083zM4.205 23.31a1.562 1.562 0 01-.58-.74c-.13-.392-.115-.53.098-.895.342-.587.918-.746 1.575-.433.924.44 1.207 1.376.61 2.013-.394.42-1.099.443-1.702.055zm29.887-.055c-.597-.637-.313-1.574.61-2.013.657-.313 1.233-.154 1.575.433.214.366.228.502.098.899-.31.94-1.662 1.343-2.283.681zM.645 20.964c-.458-.257-.64-.592-.64-1.176 0-.985 1.174-1.392 2.002-.693.776.655.456 1.876-.527 2.011a1.426 1.426 0 01-.835-.141zm37.514.069c-.38-.154-.579-.54-.579-1.122 0-.357.098-.55.413-.816.837-.706 2.003-.292 2.003.712 0 .578-.192.91-.669 1.158-.436.226-.733.243-1.168.067z" fill="#F88500"/></g><defs><clipPath id="clip0"><path fill="#fff" d="M0 0h40v40H0z"/></clipPath></defs></svg>