<svg width="52" height="33" fill="none" xmlns="http://www.w3.org/2000/svg"><path d="M11.121 32.676c.022-.178.08-.475.127-.66.047-.185.086-.426.086-.536 0-.11.028-.216.062-.237.034-.021.062-.17.062-.333 0-.162.021-.315.047-.34.042-.04.15-.589.244-1.238.02-.136.055-.26.08-.278.024-.017.077-.253.118-.524l.108-.709a1.82 1.82 0 01.086-.339c.05-.116.167-.727.23-1.202.016-.119.053-.271.082-.34.03-.067.07-.22.092-.338.131-.75.196-1.044.237-1.084.025-.026.046-.104.046-.175-.001-.184.21-.988.265-1.012.026-.011.047-.088.047-.17 0-.082.025-.149.055-.149s.073-.069.095-.154c.021-.085.066-.154.1-.154a.063.063 0 00.061-.064c0-.059.354-.473.546-.639.043-.037.187-.172.32-.299.132-.127.259-.23.281-.23.023 0 .117-.07.21-.155.092-.085.2-.154.24-.154.041 0 .083-.024.095-.053.023-.06.89-.593 1.266-.78.137-.067.263-.136.28-.153.035-.035.442-.23 1.277-.615.308-.141.61-.283.669-.315a.526.526 0 01.202-.057c.052 0 .094-.028.094-.062s.036-.061.08-.061c.086 0 .591-.252 1.041-.519.154-.091.358-.198.452-.238.094-.04.171-.093.171-.12 0-.026.043-.048.095-.048.052 0 .205-.07.341-.154.136-.085.288-.154.338-.154.117 0 .222-.366.222-.778v-.315l.561-.082.56-.082v-.355c0-.486-.112-.978-.223-.978-.048 0-.088-.027-.088-.061a.062.062 0 00-.063-.062c-.097 0-.435-.319-.435-.41 0-.046-.021-.083-.047-.083-.08 0-.389-.762-.389-.96 0-.078-.028-.16-.062-.18-.034-.021-.062-.201-.062-.4 0-.434-.04-.556-.184-.556-.179 0-.49-.182-.616-.358-.143-.204-.19-.39-.26-1.046-.031-.28-.076-.543-.102-.584-.047-.075-.128-.448-.188-.869-.02-.137-.006-.265.035-.305a.27.27 0 00.07-.167c0-.054.111-.207.248-.34.28-.27.283-.277.162-.545a7.38 7.38 0 01-.194-.502 8.777 8.777 0 00-.158-.432c-.168-.391-.192-.667-.16-1.819.037-1.3.086-1.906.162-2.003.026-.034.067-.193.09-.353.024-.16.07-.308.102-.328.032-.02.058-.103.058-.186s.025-.15.056-.15c.03 0 .073-.07.095-.154.02-.085.171-.288.333-.45a1.425 1.425 0 011.035-.445c.129 0 .146-.028.146-.249a.53.53 0 01.145-.402c.18-.19.657-.458.814-.458.064 0 .117-.021.117-.047 0-.042.517-.173 1.183-.3.335-.065 2.04-.047 2.46.025.481.083.963.192 1.12.255.07.027.231.095.36.15.13.056.278.102.328.102.05 0 .091.024.091.054s.05.07.11.09c.2.067.767.478 1.083.784.293.284.663.941.778 1.384.018.067.055.178.084.246.134.322.218 1.516.218 3.083 0 .915-.014 1.802-.03 1.97-.03.294-.026.307.155.369.27.091.457.33.504.64.045.297-.01.983-.096 1.199-.03.075-.103.304-.161.507-.06.204-.132.396-.162.429-.03.032-.054.12-.054.195 0 .075-.021.146-.047.157-.025.011-.102.132-.171.267-.133.263-.323.457-.451.46-.043.002-.078.033-.078.07 0 .042-.06.055-.148.033-.139-.035-.149-.017-.184.317-.073.684-.176 1.279-.233 1.336-.032.033-.058.123-.058.2 0 .079-.028.143-.062.143-.035 0-.063.034-.063.077 0 .105-.369.49-.566.59-.15.077-.157.1-.112.37.027.159.05.457.052.664l.004.375.451.078c.248.043.487.088.53.1.052.016.077.162.077.453 0 .53.074.7.366.847.124.063.24.128.257.146.087.09.381.245.465.245.053 0 .096.028.096.062s.027.062.06.062c.052 0 .582.22.874.364.101.05 1.246.403 1.65.51.137.035.305.086.374.113.068.026.264.095.436.152.443.15 1.625.683 1.712.773.017.018.11.082.207.143.31.195.842.68 1.132 1.03.16.193.343.71.343.965 0 .108.025.212.055.23.031.019.07.139.087.266.04.294.154.75.228.91.032.067.071.206.088.308.062.373.171.804.23.908.032.06.059.176.059.26a.93.93 0 00.058.293c.032.078.104.364.16.635.057.271.13.541.16.6a.53.53 0 01.058.207c0 .132.186.947.252 1.104.028.068.064.22.08.34.04.314.174.936.233 1.078.027.068.063.22.079.34.063.474.18 1.085.23 1.201.06.142.128.756.143 1.295l.01.37-14.621.015L11.08 33l.041-.324zm29.856-3.695c0-.107-.026-.28-.057-.385a12.22 12.22 0 01-.234-1.114 1.705 1.705 0 00-.079-.308 6.455 6.455 0 01-.158-.617 7.328 7.328 0 00-.156-.616 25.597 25.597 0 01-.372-1.449c-.118-.513-.208-.84-.26-.94a.652.652 0 01-.054-.249c0-.078-.027-.17-.06-.203-.034-.033-.08-.26-.103-.507-.023-.246-.066-.462-.095-.48-.03-.018-.053-.098-.053-.177 0-.31-.456-1.038-.966-1.544a11.89 11.89 0 00-.643-.605c-.279-.213-.947-.597-1.04-.597-.05 0-.091-.021-.091-.047 0-.05-.455-.261-.561-.261-.034 0-.062-.026-.062-.058 0-.031-.063-.066-.14-.077a.176.176 0 01-.16-.158c-.011-.076.005-.139.035-.139.03 0 .12-.128.2-.285.14-.28.627-.824.734-.824.03 0 .109-.05.175-.11.067-.061.212-.148.323-.193l.203-.082v-.595c0-.665-.022-.7-.475-.781a1.204 1.204 0 01-.304-.086 3.115 3.115 0 00-.436-.154 11.34 11.34 0 01-.516-.165.918.918 0 00-.265-.054c-.067 0-.122-.024-.122-.054s-.106-.07-.235-.09a2.326 2.326 0 01-.545-.193c-.17-.086-.345-.156-.387-.156-.043 0-.078-.028-.078-.062s.025-.061.055-.061.074-.07.095-.155c.021-.084.067-.154.1-.154.034 0 .061-.069.061-.154 0-.085.028-.154.063-.154.034 0 .062-.055.062-.122s.045-.235.101-.372c.118-.292.08-.377-.081-.184-.381.456-1.079 1.066-1.079.944 0-.03.026-.083.057-.115.093-.095.566-1.028.566-1.117 0-.045.028-.082.062-.082s.062-.03.062-.068c0-.066.14-.41.254-.623.07-.134.185-.568.223-.85.016-.119.053-.271.081-.34.056-.132.18-.991.26-1.787.026-.271.075-.66.107-.863.032-.204.092-.634.133-.956.041-.322.098-.64.127-.709.029-.068.068-.248.088-.4.063-.489.19-1.099.238-1.146.025-.026.046-.111.046-.191s.026-.193.057-.252c.032-.059.178-.35.326-.646.147-.297.29-.54.316-.54.027 0 .049-.031.049-.07 0-.095.634-.728.731-.73.043 0 .078-.023.078-.05 0-.026.077-.08.172-.12a7.14 7.14 0 00.506-.26c.185-.103.374-.188.42-.188.047 0 .085-.024.085-.054s.078-.07.172-.088c.296-.058.726-.18.875-.248.2-.092 1.801-.083 1.895.01a.35.35 0 00.215.072c.154 0 .489.116 1.002.346.18.08.356.147.39.147.033 0 .06.025.06.055s.049.07.109.088c.335.105 1.261.857 1.261 1.024 0 .032.036.094.08.139.155.16.663 1.264.704 1.534.024.15.064.301.09.335.026.034.062.187.08.34.019.152.08.54.137.862.143.814.33 2.068.468 3.145.124.968.272 1.721.378 1.925.03.06.056.156.056.216s.043.188.094.285a.803.803 0 01.093.262c0 .047.028.086.062.086s.062.034.062.076c0 .042.075.23.165.416l.327.68c.09.186.19.358.223.381.033.024.042.06.021.082-.06.06-.683-.497-1.072-.959l-.181-.214.044.247c.082.452.287.988.413 1.079a.44.44 0 01.087.17c.033.104.016.148-.07.176-.062.02-.234.09-.382.156a2.74 2.74 0 01-.453.155c-.1.02-.198.061-.217.09-.018.03-.102.054-.186.054a.67.67 0 00-.26.057c-.115.06-.93.317-1.363.431-.38.1-.402.152-.355.807.04.558.046.575.218.639.097.036.176.088.176.114 0 .027.03.048.067.048.074 0 .457.273.65.463.068.067.18.233.249.369.068.135.16.282.202.328.043.045.078.104.078.13 0 .114.381.43.601.497.244.075.48.172.921.38.135.063.282.114.327.114.045 0 .082.028.082.06 0 .034.07.079.155.1.086.021.156.06.156.085 0 .068.615.372.753.372.065 0 .119.021.119.048 0 .053.467.189.825.24.13.018.25.058.269.088.019.03.104.055.189.055s.343.046.572.101c.452.11 1.031.477 1.102.7.023.068.067.124.099.124s.058.042.058.093c0 .05.02.092.046.093.062 0 .265.355.265.461 0 .046.033.094.073.107.076.025.144 1.039.214 3.192.02.627.062 1.167.093 1.199.03.032.056.622.056 1.31v1.251H40.977v-.196zM.124 28.164c0-.15-.028-.291-.062-.312-.078-.048-.084-1.525-.007-1.606.03-.032.072-.378.093-.768.04-.768.166-1.689.24-1.762.026-.025.047-.112.047-.194 0-.158.159-.718.254-.894a.505.505 0 00.058-.195c0-.049.04-.167.09-.263.05-.096.127-.265.171-.375.044-.11.097-.2.116-.2.02 0 .1-.128.18-.285.18-.357.95-1.134 1.28-1.292.137-.065.258-.14.27-.165.011-.026.046-.046.078-.046.031 0 .202-.07.38-.154.177-.085.36-.155.404-.155.045 0 .082-.027.082-.06 0-.034.113-.08.25-.101.138-.022.266-.064.285-.093.018-.03.088-.054.155-.054s.17-.024.23-.054a4.55 4.55 0 01.481-.165 3.79 3.79 0 00.436-.15c.035-.02.224-.088.42-.152.198-.064.359-.139.359-.167 0-.028.063-.053.14-.054a.526.526 0 00.26-.092.473.473 0 01.234-.09c.062 0 .113-.028.113-.062s.042-.062.094-.062a.518.518 0 00.203-.059c.06-.032.22-.107.357-.166.137-.06.263-.124.28-.143.017-.02.157-.09.312-.156a2.12 2.12 0 00.311-.152c.04-.043.684-.35.825-.395.06-.02.11-.091.11-.16s.024-.125.055-.125c.03 0 .071-.118.09-.262.018-.144.079-.484.134-.756.184-.896.184-.869.007-1.058-.09-.095-.162-.208-.162-.25 0-.044-.025-.079-.056-.079-.03 0-.073-.069-.094-.154-.022-.085-.067-.154-.1-.154-.034 0-.062-.042-.062-.092 0-.051-.028-.093-.062-.093s-.062-.044-.062-.098a.733.733 0 00-.088-.262c-.168-.312-.353-.76-.39-.94-.02-.1-.061-.197-.09-.215-.03-.018-.055-.104-.055-.19a2.41 2.41 0 00-.098-.49c-.089-.301-.114-.332-.275-.332-.194 0-.478-.277-.526-.514a8.644 8.644 0 01-.177-1.715c-.015-.84-.012-.848.367-1.074.098-.059.101-.089.03-.26-.115-.274-.133-2.994-.022-3.105a.297.297 0 00.078-.182c0-.375.853-1.41 1.417-1.72.146-.08.265-.165.265-.19 0-.023.07-.06.155-.082.086-.021.156-.066.156-.099s.042-.06.094-.06c.05 0 .093-.026.093-.058s.051-.073.114-.093a.811.811 0 00.235-.143 2.37 2.37 0 01.338-.227c.119-.066.272-.173.34-.237a1.45 1.45 0 01.234-.174c.097-.052.109-.027.109.22 0 .154.014.28.032.28.017 0 .328-.293.69-.652.363-.359.676-.635.698-.614.021.021.046.217.054.436.009.219.052.46.096.537l.08.139.02-.17c.023-.195.137-.216.408-.076a.82.82 0 00.264.092c.048 0 .087.021.087.048 0 .026.14.102.311.168.171.065.312.135.312.153 0 .02.125.09.28.156.153.067.28.143.28.168 0 .026.029.047.064.047.079 0 .894.502.922.568.011.026.056.048.098.048.137 0 .83.719.951.986a.45.45 0 00.078.124c.076.065.254.656.254.844 0 .108.031.216.07.24.07.042.05 1.016-.046 2.368l-.037.524.224.118c.123.065.224.155.224.2 0 .046.025.083.056.083.1 0 .129.512.071 1.264-.03.407-.075.829-.098.938-.05.238-.308.51-.482.51-.153 0-.29.168-.292.36-.003.198-.209.961-.267.987-.025.01-.046.082-.046.157a.499.499 0 01-.092.257.458.458 0 00-.093.192c-.005.184-.646 1.15-1.107 1.669-.099.11-.117.2-.093.462.016.178.054.35.084.383.03.032.055.155.055.273 0 .118.046.411.103.651l.102.437.879.429c.483.236.971.483 1.086.548l.207.119-.239.087a10.61 10.61 0 01-.347.121c-.06.02-.11.059-.11.089s-.07.054-.155.054c-.086 0-.156.028-.156.062s-.035.062-.078.063c-.042 0-.246.083-.451.184-.206.1-.409.182-.452.183-.042 0-.077.023-.077.048 0 .026-.091.085-.203.132a5.943 5.943 0 00-.59.323c-.213.131-.406.238-.428.238-.044 0-.72.473-.94.656a15.29 15.29 0 01-.311.252c-.32.25-.547.476-.829.819a18.9 18.9 0 01-.31.37.974.974 0 00-.1.153 75.2 75.2 0 01-.231.414c-.204.363-.48 1.145-.48 1.36 0 .088-.027.232-.061.32a4.123 4.123 0 00-.13.543c-.076.42-.125.654-.277 1.31a91.03 91.03 0 00-.155.677c-.03.136-.1.441-.155.678a18.35 18.35 0 00-.15.71c-.1.55.514.493-5.369.493H.124v-.274z" fill="#F88500"/></svg>