<?xml version="1.0" encoding="UTF-8"?>
<svg width="64px" height="64px" viewBox="0 0 64 64" version="1.1" xmlns="http://www.w3.org/2000/svg" xmlns:xlink="http://www.w3.org/1999/xlink">
    <!-- Generator: Sketch 40.1 (33804) - http://www.bohemiancoding.com/sketch -->
    <title>technology</title>
    <desc>Created with Sketch.</desc>
    <defs></defs>
    <g id="Page-1" stroke="none" stroke-width="1" fill="none" fill-rule="evenodd">
        <g id="A4-Landscape" transform="translate(-301.000000, -488.000000)" fill="#3eb011">
            <g id="website-svgrepo-com" transform="translate(301.000000, 488.000000)">
                <g id="Capa_1">
                    <path d="M62.9333333,0 L1.06666667,0 C0.426666667,0 0,0.426666667 0,1.06666667 L0,33.0666667 C0,33.7066667 0.426666667,34.1333333 1.06666667,34.1333333 L9.6,34.1333333 L9.6,32 L6.4,32 L6.4,19.2 L9.6,19.2 L9.6,17.0666667 L2.13333333,17.0666667 L2.13333333,2.13333333 L61.8666667,2.13333333 L61.8666667,33.0666667 L64,33.0666667 L64,1.06666667 C64,0.426666667 63.5733333,0 62.9333333,0 L62.9333333,0 Z M4.26666667,19.2 L4.26666667,32 L2.13333333,32 L2.13333333,19.2 L4.26666667,19.2 L4.26666667,19.2 Z" id="Shape"></path>
                    <path d="M28.8,43.7333333 L23.4666667,43.7333333 L23.4666667,26.6666667 L25.6,26.6666667 C26.24,26.6666667 26.6666667,26.24 26.6666667,25.6 L26.6666667,14.9333333 C26.6666667,14.2933333 26.24,13.8666667 25.6,13.8666667 L12.8,13.8666667 C12.16,13.8666667 11.7333333,14.2933333 11.7333333,14.9333333 L11.7333333,25.6 C11.7333333,26.24 12.16,26.6666667 12.8,26.6666667 L14.9333333,26.6666667 L14.9333333,43.7333333 L9.6,43.7333333 C8.96,43.7333333 8.53333333,44.16 8.53333333,44.8 L8.53333333,50.1333333 C8.53333333,50.7733333 8.96,51.2 9.6,51.2 L11.7333333,51.2 L11.7333333,64 L13.8666667,64 L13.8666667,60.8 L18.1333333,60.8 L18.1333333,58.6666667 L13.8666667,58.6666667 L13.8666667,55.4666667 L18.1333333,55.4666667 L18.1333333,53.3333333 L13.8666667,53.3333333 L13.8666667,51.2 L24.5333333,51.2 L24.5333333,64 L26.6666667,64 L26.6666667,51.2 L28.8,51.2 C29.44,51.2 29.8666667,50.7733333 29.8666667,50.1333333 L29.8666667,44.8 C29.8666667,44.16 29.44,43.7333333 28.8,43.7333333 L28.8,43.7333333 Z M13.8666667,24.5333333 L13.8666667,16 L24.5333333,16 L24.5333333,24.5333333 L22.4,24.5333333 C21.76,24.5333333 21.3333333,24.96 21.3333333,25.6 L21.3333333,43.7333333 L17.0666667,43.7333333 L17.0666667,26.6666667 L19.2,26.6666667 L19.2,24.5333333 L16,24.5333333 L13.8666667,24.5333333 L13.8666667,24.5333333 Z M27.7333333,49.0666667 L25.6,49.0666667 L12.8,49.0666667 L10.6666667,49.0666667 L10.6666667,45.8666667 L16,45.8666667 L22.4,45.8666667 L27.7333333,45.8666667 L27.7333333,49.0666667 L27.7333333,49.0666667 Z" id="Shape"></path>
                    <rect id="Rectangle-path" x="5.33333333" y="5.33333333" width="5.33333333" height="2.13333333"></rect>
                    <rect id="Rectangle-path" x="14.9333333" y="5.33333333" width="5.33333333" height="2.13333333"></rect>
                    <rect id="Rectangle-path" x="24.5333333" y="5.33333333" width="5.33333333" height="2.13333333"></rect>
                    <rect id="Rectangle-path" x="34.1333333" y="5.33333333" width="5.33333333" height="2.13333333"></rect>
                    <polygon id="Shape" points="28.8 19.2 33.0666667 19.2 33.0666667 32 28.8 32 28.8 34.1333333 39.4666667 34.1333333 39.4666667 32 35.2 32 35.2 19.2 39.4666667 19.2 39.4666667 17.0666667 28.8 17.0666667"></polygon>
                    <path d="M62.9333333,44.8 L59.9466667,44.8 C59.84,44.6933333 59.84,44.48 59.7333333,44.3733333 L61.8666667,42.4533333 C62.08,42.24 62.1866667,42.0266667 62.1866667,41.7066667 C62.1866667,41.3866667 62.08,41.1733333 61.8666667,40.96 L57.3866667,36.48 C56.96,36.0533333 56.32,36.0533333 55.8933333,36.48 L53.8666667,38.5066667 C53.6533333,38.4 53.5466667,38.4 53.44,38.2933333 L53.44,35.2 C53.44,34.56 53.0133333,34.1333333 52.3733333,34.1333333 L45.9733333,34.1333333 C45.3333333,34.1333333 44.9066667,34.56 44.9066667,35.2 L44.9066667,38.08 C44.8,38.1866667 44.5866667,38.1866667 44.48,38.2933333 L42.4533333,36.2666667 C42.0266667,35.84 41.3866667,35.84 40.96,36.2666667 L36.48,40.7466667 C36.2666667,40.96 36.16,41.1733333 36.16,41.4933333 C36.16,41.8133333 36.2666667,42.0266667 36.48,42.24 L38.5066667,44.2666667 C38.4,44.48 38.4,44.5866667 38.2933333,44.6933333 L35.2,44.6933333 C34.56,44.6933333 34.1333333,45.12 34.1333333,45.76 L34.1333333,52.16 C34.1333333,52.8 34.56,53.2266667 35.2,53.2266667 L38.1866667,53.2266667 C38.2933333,53.3333333 38.2933333,53.5466667 38.4,53.6533333 L36.3733333,55.68 C36.16,55.8933333 36.0533333,56.1066667 36.0533333,56.4266667 C36.0533333,56.7466667 36.16,56.96 36.3733333,57.1733333 L40.8533333,61.6533333 C41.28,62.08 41.92,62.08 42.3466667,61.6533333 L44.3733333,59.6266667 C44.5866667,59.7333333 44.6933333,59.7333333 44.8,59.84 L44.8,62.9333333 C44.8,63.5733333 45.2266667,64 45.8666667,64 L52.2666667,64 C52.9066667,64 53.3333333,63.5733333 53.3333333,62.9333333 L53.3333333,59.9466667 C53.44,59.84 53.6533333,59.84 53.76,59.7333333 L55.7866667,61.76 C56.2133333,62.1866667 56.8533333,62.1866667 57.28,61.76 L61.76,57.28 C61.9733333,57.0666667 62.08,56.8533333 62.08,56.5333333 C62.08,56.2133333 61.9733333,56 61.76,55.7866667 L59.7333333,53.76 C59.84,53.6533333 59.84,53.44 59.9466667,53.3333333 L62.9333333,53.3333333 C63.5733333,53.3333333 64,52.9066667 64,52.2666667 L64,45.8666667 C64,45.2266667 63.5733333,44.8 62.9333333,44.8 L62.9333333,44.8 Z M61.8666667,51.2 L59.2,51.2 C58.6666667,51.2 58.24,51.6266667 58.1333333,52.0533333 C58.1333333,52.2666667 57.7066667,53.12 57.6,53.3333333 C57.4933333,53.5466667 57.3866667,53.76 57.3866667,53.9733333 C57.3866667,54.2933333 57.4933333,54.5066667 57.7066667,54.72 L59.52,56.5333333 L56.5333333,59.52 L54.72,57.7066667 C54.5066667,57.4933333 54.2933333,57.3866667 53.9733333,57.3866667 C53.6533333,57.3866667 53.5466667,57.4933333 53.3333333,57.6 C53.12,57.7066667 52.2666667,58.0266667 52.0533333,58.1333333 C51.52,58.24 51.2,58.6666667 51.2,59.2 L51.2,61.8666667 L46.9333333,61.8666667 L46.9333333,59.2 C46.9333333,58.88 46.8266667,58.6666667 46.6133333,58.4533333 C46.4,58.1333333 44.5866667,57.3866667 44.16,57.3866667 C43.84,57.3866667 43.6266667,57.4933333 43.4133333,57.7066667 L41.6,59.52 L38.6133333,56.5333333 L40.4266667,54.72 C40.64,54.5066667 40.7466667,54.2933333 40.7466667,53.9733333 C40.7466667,53.76 40.64,53.5466667 40.5333333,53.3333333 C40.4266667,53.12 40.1066667,52.2666667 40,52.0533333 C39.8933333,51.52 39.4666667,51.2 38.9333333,51.2 L36.2666667,51.2 L36.2666667,46.9333333 L38.9333333,46.9333333 C39.2533333,46.9333333 39.4666667,46.8266667 39.68,46.6133333 C40,46.4 40.7466667,44.5866667 40.7466667,44.16 C40.7466667,43.84 40.64,43.6266667 40.4266667,43.4133333 L38.6133333,41.6 L41.6,38.6133333 L43.4133333,40.4266667 C43.6266667,40.64 43.84,40.7466667 44.16,40.7466667 C44.48,40.7466667 44.5866667,40.64 44.8,40.5333333 C45.0133333,40.4266667 45.8666667,40.1066667 46.08,40 C46.6133333,39.8933333 46.9333333,39.4666667 46.9333333,38.9333333 L46.9333333,36.2666667 L51.2,36.2666667 L51.2,38.9333333 C51.2,39.2533333 51.3066667,39.4666667 51.52,39.68 C51.7333333,40 53.5466667,40.7466667 53.9733333,40.7466667 C54.2933333,40.7466667 54.5066667,40.64 54.72,40.4266667 L56.5333333,38.6133333 L59.52,41.6 L57.7066667,43.4133333 C57.4933333,43.6266667 57.3866667,43.84 57.3866667,44.16 C57.3866667,44.3733333 57.4933333,44.5866667 57.6,44.8 C57.7066667,45.0133333 58.0266667,45.8666667 58.1333333,46.08 C58.24,46.6133333 58.6666667,46.9333333 59.2,46.9333333 L61.8666667,46.9333333 L61.8666667,51.2 L61.8666667,51.2 Z" id="Shape"></path>
                    <path d="M49.0666667,44.8 C46.72,44.8 44.8,46.72 44.8,49.0666667 C44.8,51.4133333 46.72,53.3333333 49.0666667,53.3333333 C51.4133333,53.3333333 53.3333333,51.4133333 53.3333333,49.0666667 C53.3333333,46.72 51.4133333,44.8 49.0666667,44.8 L49.0666667,44.8 Z M49.0666667,51.2 C47.8933333,51.2 46.9333333,50.24 46.9333333,49.0666667 C46.9333333,47.8933333 47.8933333,46.9333333 49.0666667,46.9333333 C50.24,46.9333333 51.2,47.8933333 51.2,49.0666667 C51.2,50.24 50.24,51.2 49.0666667,51.2 L49.0666667,51.2 Z" id="Shape"></path>
                    <path d="M45.8666667,30.9333333 L45.8666667,10.0266667 L47.2533333,11.4133333 L48.7466667,9.92 L45.5466667,6.72 C45.12,6.29333333 44.48,6.29333333 44.0533333,6.72 L40.8533333,9.92 L42.3466667,11.4133333 L43.7333333,10.0266667 L43.7333333,30.9333333 L45.8666667,30.9333333 L45.8666667,30.9333333 Z" id="Shape"></path>
                    <path d="M54.4,7.46666667 L54.4,28.3733333 L53.0133333,26.9866667 L51.52,28.48 L54.72,31.68 C54.9333333,31.8933333 55.1466667,32 55.4666667,32 C55.7866667,32 56,31.8933333 56.2133333,31.68 L59.4133333,28.48 L57.92,26.9866667 L56.5333333,28.3733333 L56.5333333,7.46666667 L54.4,7.46666667 L54.4,7.46666667 Z" id="Shape"></path>
                </g>
            </g>
        </g>
    </g>
</svg>