<svg width="40" height="41" fill="none" xmlns="http://www.w3.org/2000/svg"><path d="M.205 40.79L0 40.58V18.846l.205-.21a.657.657 0 01.478-.21c.253 0 1.086.833 10.796 10.796C21.189 39.185 22 40.039 22 40.299c0 .185-.07.353-.204.491l-.205.21H.41l-.205-.21zm19.462-1.18c0-.011-4.125-4.254-9.167-9.427l-9.167-9.405v18.854H10.5c5.042 0 9.167-.01 9.167-.022zM4.205 36.686L4 36.476v-7.369l.205-.21a.657.657 0 01.478-.21c.249 0 .585.32 3.795 3.614C11.688 35.594 12 35.94 12 36.195c0 .184-.07.353-.204.49l-.205.21H4.41l-.205-.21zm5.462-1.18c0-.013-.975-1.022-2.167-2.244L5.333 31.04v4.488H7.5c1.192 0 2.167-.01 2.167-.022zm11 .709v-.687h5.479c3.739-.001 5.585-.031 5.812-.096.449-.127 1.159-.855 1.282-1.315.051-.188.093-.563.093-.834v-.492H17.742l-.204-.21-.205-.21v-6l.205-.21.204-.21h15.592V11.887L32 13.253l-1.333 1.367v9.543l-.205.21-.204.21H15.076l-.205-.21c-.202-.207-.204-.229-.204-1.753v-1.543h-.283c-.423 0-1.682-.396-2.342-.738-1.922-.993-3.286-2.766-3.84-4.992-.25-1.003-.213-2.705.082-3.711.401-1.37.97-2.37 1.88-3.3.968-.991 2.152-1.666 3.556-2.024.85-.218 2.53-.195 3.405.046 2.058.568 3.795 1.996 4.719 3.881l.325.663h4.874l3.145-3.228 3.145-3.229v-.683c0-.376-.042-.838-.093-1.026-.123-.46-.834-1.188-1.282-1.315-.47-.134-23.445-.134-23.916 0-.448.127-1.159.855-1.282 1.315-.065.24-.093 3.053-.093 9.384v9.043H5.33l.022-9.304.023-9.303C5.861.915 6.707.29 7.875 0h24.25l.562.273c.975.474 1.75 1.477 1.874 2.426.025.185.063.336.087.336.023 0 .34-.292.704-.649.854-.837 1.23-1.018 2.106-1.013.778.005 1.294.227 1.804.779.516.556.687.999.691 1.781.006 1.126-.028 1.175-2.832 4.063l-2.454 2.527v15.428h4.924l.204.21.205.21v6l-.205.21-.204.21H34.69l-.043.775c-.037.667-.085.862-.344 1.399-.363.755-.855 1.245-1.621 1.617l-.557.271-5.73.024-5.728.024v-.687zm18-6.844V27.32h-1.334v1.368H36V27.32h-1.333v1.368h-1.334V27.32H32v1.368h-1.333V27.32h-1.334v1.368H28V27.32h-1.333v1.368h-1.334V27.32H24v1.368h-1.333V27.32h-1.334v1.368H20V27.32h-1.333v4.104h20v-2.052zm-9.334-9.767v-3.611l-.824.842-.824.843-1.852.38c-1.018.21-1.941.36-2.05.331-.109-.028-.261-.15-.34-.273-.136-.213-.127-.298.225-2.158l.367-1.935.831-.877.832-.876H22.58l.053.92c.21 3.647-2.076 6.816-5.596 7.757-.269.072-.612.13-.763.13H16v2.138h13.333v-3.611zm-14.428-8.539c.185-.153.364-.163 2.988-.163 2.463 0 2.786-.015 2.743-.13-.128-.343-.756-1.168-1.248-1.64a6.109 6.109 0 00-2.29-1.379c-.56-.192-.78-.219-1.765-.218-.999 0-1.2.025-1.791.23-1.656.569-2.835 1.613-3.59 3.18-.844 1.746-.835 3.59.024 5.427.325.694.486.92 1.139 1.584.968.987 1.943 1.526 3.141 1.736l.369.065.042-4.264.041-4.264.197-.164zm2.482 8.35c.828-.309 1.433-.718 2.155-1.459.76-.78 1.199-1.496 1.517-2.48.192-.593.222-.83.227-1.795.003-.611-.021-1.179-.054-1.261-.055-.138-.262-.15-2.646-.15H16v7.501l.43-.08a7.11 7.11 0 00.957-.277zm8.062-2.659c.212-.033.403-.087.423-.12.02-.034-.144-.245-.366-.47-.221-.223-.421-.374-.444-.334a2.24 2.24 0 00-.097.414 6.055 6.055 0 01-.104.505c-.034.119-.014.15.077.113a3.78 3.78 0 01.51-.108zm6.76-5.683l4.832-4.96-.854-.875-.854-.877-4.853 4.98-4.853 4.98.83.856c.458.47.851.855.875.855.024 0 2.218-2.231 4.876-4.959zm6.114-6.286c.472-.552.465-1.24-.017-1.734-.507-.52-1.274-.475-1.802.105l-.204.225.828.852c.455.469.852.853.883.853.03 0 .17-.136.313-.301zM8 3.377v-.684h1.333v1.369H8v-.685zm2.667 0v-.684H12v1.369h-1.333v-.685zm2.666 0v-.684h1.334v1.369h-1.334v-.685z" fill="#F88500"/></svg>