<svg width="39" height="39" fill="none" xmlns="http://www.w3.org/2000/svg"><path d="M19.5 0c-3.78 0-7.445 1.083-10.602 3.131a.744.744 0 00.81 1.249A17.943 17.943 0 0119.5 1.489c9.931 0 18.011 8.08 18.011 18.011S29.431 37.511 19.5 37.511c-9.932 0-18.011-8.08-18.011-18.011 0-5.064 2.15-9.924 5.9-13.332a.744.744 0 00-1-1.102A19.545 19.545 0 000 19.5C0 30.252 8.748 39 19.5 39S39 30.252 39 19.5 30.252 0 19.5 0z" fill="#F88500"/><path d="M32.748 10.655a.744.744 0 10-1.237.827 14.37 14.37 0 012.428 8.018c0 7.962-6.477 14.439-14.439 14.439-7.961 0-14.439-6.477-14.439-14.439S11.54 5.061 19.501 5.061c3.797 0 7.383 1.463 10.098 4.119a.744.744 0 101.04-1.064A15.839 15.839 0 0019.5 3.573c-8.782 0-15.927 7.144-15.927 15.927 0 8.782 7.145 15.927 15.927 15.927 8.783 0 15.928-7.145 15.928-15.927 0-3.166-.927-6.225-2.68-8.845z" fill="#F88500"/><path d="M19.5 8.137c-2.453 0-4.788.77-6.754 2.225a.744.744 0 10.885 1.196A9.794 9.794 0 0119.5 9.626c5.445 0 9.874 4.43 9.874 9.874a9.856 9.856 0 01-7.472 9.58.744.744 0 00.361 1.444 11.342 11.342 0 008.6-11.024c0-6.265-5.098-11.363-11.363-11.363zm-6.246 19.011A9.844 9.844 0 019.626 19.5c0-2.059.627-4.031 1.814-5.704a.744.744 0 10-1.215-.861A11.287 11.287 0 008.138 19.5c0 3.423 1.521 6.63 4.174 8.8a.742.742 0 001.047-.105.744.744 0 00-.105-1.047z" fill="#F88500"/><path d="M25.95 18.756a.744.744 0 00-.744.744 5.712 5.712 0 01-5.706 5.706 5.713 5.713 0 01-5.706-5.706 5.713 5.713 0 015.706-5.706.744.744 0 100-1.489c-3.967 0-7.195 3.228-7.195 7.195s3.228 7.195 7.195 7.195 7.195-3.228 7.195-7.195a.744.744 0 00-.745-.744z" fill="#F88500"/><path d="M19.5 16.473a3.03 3.03 0 00-3.027 3.027 3.03 3.03 0 003.027 3.027 3.03 3.03 0 003.026-3.027 3.03 3.03 0 00-3.026-3.027zm0 4.565a1.54 1.54 0 01-1.538-1.538c0-.848.69-1.538 1.538-1.538.848 0 1.538.69 1.538 1.538a1.54 1.54 0 01-1.538 1.538z" fill="#F88500"/></svg>