<?xml version="1.0" encoding="utf-8"?>
<!-- Svg Vector Icons : http://www.onlinewebfonts.com/icon -->
<!DOCTYPE svg PUBLIC "-//W3C//DTD SVG 1.1//EN" "http://www.w3.org/Graphics/SVG/1.1/DTD/svg11.dtd">
<svg version="1.1" xmlns="http://www.w3.org/2000/svg" xmlns:xlink="http://www.w3.org/1999/xlink" x="0px" y="0px" viewBox="0 0 1000 1000" enable-background="new 0 0 1000 1000" xml:space="preserve">
<metadata> Svg Vector Icons : http://www.onlinewebfonts.com/icon </metadata>
<g><g><g id="Layer_1_106_"><g><path d="M392.9,679.7h-87.1V396.6h87.1V679.7z M349.4,360.3c-31.4,0-47.1-14.5-47.1-43.6c0-12.1,4.5-22.4,13.6-30.9c9-8.4,20.2-12.7,33.5-12.7c31.4,0,47.1,14.6,47.1,43.6C396.5,345.8,380.8,360.3,349.4,360.3z M716,679.7h-88.9V521.8c0-41.1-14.6-61.7-43.6-61.7c-23,0-38.1,11.5-45.4,34.5c-2.3,3.6-3.6,10.9-3.6,21.8v163.3h-88.9V487.3c0-43.6-0.7-73.8-1.8-90.7H520l5.4,38.1c20-30.3,49-45.4,88.9-45.4c30.3,0,54.8,10.6,73.5,31.7c18.8,21.2,28.2,51.7,28.2,91.7L716,679.7L716,679.7z"/></g><g><path d="M500,990C229.8,990,10,770.2,10,500S229.8,10,500,10c270.2,0,490,219.8,490,490S770.2,990,500,990z M500,118.9c-210.1,0-381.1,171-381.1,381.1c0,210.1,171,381.1,381.1,381.1c210.1,0,381.1-171,381.1-381.1C881.1,289.9,710.1,118.9,500,118.9z"/></g></g></g><g></g><g></g><g></g><g></g><g></g><g></g><g></g><g></g><g></g><g></g><g></g><g></g><g></g><g></g><g></g></g>
</svg>